<?xml version="1.0" standalone="no"?>
<!DOCTYPE svg PUBLIC "-//W3C//DTD SVG 20010904//EN"
 "http://www.w3.org/TR/2001/REC-SVG-20010904/DTD/svg10.dtd">
<svg version="1.0" xmlns="http://www.w3.org/2000/svg"
 width="244.000000pt" height="175.000000pt" viewBox="0 0 244.000000 175.000000"
 preserveAspectRatio="xMidYMid meet">

<g transform="translate(0.000000,175.000000) scale(0.100000,-0.100000)"
fill="#000000" stroke="none">
<path d="M715 1514 c-180 -28 -359 -148 -466 -312 -81 -123 -112 -235 -111
-398 1 -180 63 -338 180 -466 70 -75 164 -143 186 -135 8 3 12 17 11 31 -2 14
0 41 5 61 4 20 4 38 -1 41 -5 3 -7 9 -4 14 3 5 30 -3 60 -16 94 -43 183 -64
276 -64 135 0 228 41 334 149 58 60 54 65 -12 15 -27 -20 -68 -45 -93 -56 -57
-24 -169 -48 -223 -47 l-42 0 66 24 c153 53 282 133 360 224 54 62 149 228
142 247 -3 8 -2 21 1 30 5 13 10 11 30 -8 28 -26 56 -96 56 -140 0 -17 4 -27
10 -23 20 12 51 86 45 106 -9 26 3 24 55 -12 67 -45 169 -95 232 -114 31 -9
62 -23 70 -32 12 -15 8 -16 -34 -10 -27 4 -60 9 -75 12 -16 3 -3 -4 27 -16 30
-11 72 -28 92 -36 57 -24 155 -13 213 23 25 16 43 35 40 42 -4 11 8 17 30 12
5 -1 7 1 3 5 -3 4 6 19 21 33 15 15 20 21 10 14 -14 -11 -17 -10 -22 1 -3 8 0
21 6 28 7 8 1 4 -13 -8 -40 -33 -106 -63 -157 -70 -45 -6 -47 -5 -33 12 13 16
13 19 -8 33 -12 8 -22 21 -22 28 0 8 -5 14 -11 14 -5 0 -8 4 -5 9 3 4 -14 14
-37 21 -132 39 -184 74 -362 241 -66 61 -154 142 -197 180 -42 37 -86 77 -96
87 -11 11 -28 24 -37 30 -20 10 -28 69 -12 79 6 3 7 1 3 -5 -5 -8 -1 -10 10
-5 13 5 15 3 9 -7 -6 -9 -4 -11 5 -5 10 6 9 11 -6 22 -37 27 -140 73 -209 93
-69 20 -237 33 -300 24z m240 -99 c66 -17 117 -36 112 -41 -1 -2 -30 5 -63 16
-117 36 -209 44 -315 26 -164 -29 -293 -107 -371 -228 -17 -26 -33 -46 -36
-44 -9 9 72 118 121 162 129 117 354 161 552 109z m181 -71 c18 -14 18 -14 -6
-3 -31 14 -36 19 -24 19 6 0 19 -7 30 -16z m-119 -214 c2 0 2 -4 -1 -8 -3 -5
1 -9 9 -9 10 0 11 5 4 18 -11 22 -12 32 0 25 5 -3 26 -8 46 -11 51 -6 199
-113 203 -146 2 -13 8 -28 13 -33 12 -13 -27 -78 -61 -101 -16 -11 -26 -23
-24 -27 3 -4 1 -8 -4 -8 -5 0 -34 -38 -65 -84 -30 -46 -77 -101 -104 -122 -26
-21 -77 -65 -113 -97 l-65 -59 -68 5 c-129 9 -255 95 -314 215 -51 104 -42
311 16 342 11 5 22 5 27 0 6 -6 25 6 49 30 22 21 46 39 53 40 6 0 12 5 12 12
0 6 3 9 6 6 3 -3 29 0 57 8 29 8 96 14 150 14 59 0 97 4 97 10 0 6 15 4 36 -5
20 -8 38 -15 41 -15z m319 -368 c-29 -55 -108 -152 -157 -191 -58 -46 -143
-89 -191 -97 -24 -4 -18 0 19 14 104 40 218 135 303 255 38 53 47 60 26 19z
m-393 -299 c-7 -2 -19 -2 -25 0 -7 3 -2 5 12 5 14 0 19 -2 13 -5z"/>
<path d="M1774 1440 c-104 -9 -175 -39 -273 -114 -77 -59 -80 -75 -25 -121 23
-20 46 -36 50 -36 3 -1 34 35 69 78 91 115 205 175 325 172 l45 -2 -55 -7
c-64 -8 -149 -44 -131 -55 7 -4 10 -13 7 -21 -3 -7 -1 -16 5 -19 14 -9 4 -21
-54 -59 -29 -19 -76 -59 -105 -89 -60 -61 -60 -67 -4 -121 l30 -28 13 23 c7
13 41 54 76 90 56 59 63 70 67 113 2 25 7 50 10 54 4 4 53 7 109 7 91 0 108
-3 153 -27 62 -33 118 -89 150 -150 33 -65 30 -80 -7 -30 -36 49 -129 99 -204
109 l-50 6 30 -36 c17 -19 39 -36 50 -36 79 -3 189 -81 213 -151 l11 -35 -4
35 c-5 34 -4 34 6 8 21 -54 32 -31 27 60 -5 109 -42 196 -118 276 -95 101
-193 126 -416 106z"/>
</g>
</svg>
